<?xml version="1.0" standalone="no"?>
<!DOCTYPE svg PUBLIC "-//W3C//DTD SVG 20010904//EN"
 "http://www.w3.org/TR/2001/REC-SVG-20010904/DTD/svg10.dtd">
<svg version="1.0" xmlns="http://www.w3.org/2000/svg"
 width="1024.000000pt" height="1024.000000pt" viewBox="0 0 1024.000000 1024.000000"
 preserveAspectRatio="xMidYMid meet">
<metadata>
Created by potrace 1.11, written by Peter Selinger 2001-2013
</metadata>
<g transform="translate(0.000000,1024.000000) scale(0.100000,-0.100000)"
fill="#000000" stroke="none">
<path d="M1843 10081 c-84 -21 -176 -100 -221 -190 l-27 -56 -3 -872 -2 -872
-68 27 c-61 24 -80 26 -202 27 -162 0 -229 -19 -345 -97 -133 -88 -216 -211
-259 -383 -75 -298 -658 -2757 -668 -2818 -20 -118 -14 -364 11 -487 43 -205
122 -393 233 -552 29 -42 280 -343 558 -668 278 -325 524 -621 547 -657 69
-106 109 -231 119 -368 5 -68 -7 -172 -80 -681 -47 -330 -86 -620 -86 -645 0
-106 60 -248 140 -327 61 -61 122 -99 200 -123 63 -19 92 -19 925 -17 l860 3
58 23 c132 54 246 175 287 308 20 65 20 88 20 1110 0 1155 1 1144 -65 1400
-41 160 -86 278 -162 427 -90 177 -177 296 -410 567 -120 139 -231 268 -246
286 l-28 34 2191 0 2191 0 -28 -34 c-15 -18 -126 -147 -246 -286 -246 -285
-328 -402 -428 -604 -101 -206 -171 -441 -199 -666 -6 -54 -10 -462 -10 -1126
0 -1007 1 -1044 20 -1105 20 -67 64 -144 109 -193 42 -46 139 -105 209 -126
62 -19 94 -20 907 -20 810 0 845 1 906 20 158 48 280 179 324 345 8 33 15 77
15 100 1 22 -39 317 -87 656 l-87 616 12 96 c14 116 59 244 115 331 23 35 256
315 518 623 262 307 496 583 521 613 157 194 259 420 305 675 20 108 22 349 5
452 -10 61 -594 2522 -667 2816 -45 176 -125 295 -259 385 -180 120 -388 136
-608 47 -17 -7 -18 11 -18 289 0 273 -2 299 -21 350 -28 76 -96 149 -174 186
l-63 30 -210 0 -210 0 -4 103 c-5 120 -24 171 -88 241 -46 49 -90 80 -142 99
-25 9 -419 13 -1553 17 l-1520 5 -57 30 c-41 22 -127 99 -313 280 -265 258
-314 298 -419 337 l-61 23 -965 2 c-531 0 -979 -2 -997 -6z m1899 -232 c29 -6
71 -20 93 -32 23 -11 147 -125 290 -267 138 -136 276 -263 307 -283 31 -20 90
-48 131 -62 l76 -25 1493 0 c1401 0 1495 -1 1528 -18 20 -10 42 -32 52 -52 17
-33 18 -150 18 -2025 0 -2183 4 -2038 -59 -2164 -17 -32 -42 -72 -56 -90 l-27
-31 -2468 0 -2468 0 -28 33 c-60 71 -94 166 -130 364 -36 200 -52 260 -89 333
-35 70 -109 163 -161 203 l-47 37 2167 0 2168 0 28 29 c52 51 52 106 1 164
l-29 32 -2356 3 -2356 2 0 1878 c0 1767 1 1879 18 1912 36 74 -17 70 969 70
614 0 898 -3 935 -11z m4618 -1151 c20 -14 37 -36 42 -55 4 -17 7 -640 6
-1383 l-3 -1353 -45 -12 c-25 -7 -72 -20 -105 -29 -80 -22 -170 -65 -225 -107
-25 -19 -51 -38 -57 -43 -10 -6 -13 297 -13 1498 l0 1506 184 0 c173 0 185 -1
216 -22z m-6914 -903 c29 -14 67 -43 84 -63 64 -78 60 -14 60 -991 l0 -891
-58 -29 c-77 -39 -163 -132 -191 -207 -12 -31 -42 -170 -67 -308 -41 -222 -46
-268 -47 -401 -1 -331 84 -577 313 -895 352 -491 357 -497 405 -515 136 -52
267 77 211 208 -7 18 -109 165 -226 327 -118 162 -233 331 -256 375 -86 162
-130 357 -121 535 3 52 24 199 46 325 48 264 48 263 150 285 118 25 232 -10
311 -96 60 -65 75 -107 110 -308 17 -99 43 -215 57 -259 48 -144 104 -219 516
-695 214 -246 417 -488 452 -538 128 -177 239 -436 285 -662 33 -163 40 -311
40 -869 l0 -523 -870 0 c-689 0 -870 3 -870 13 0 6 14 82 31 167 64 314 36
553 -93 802 -58 113 -94 158 -628 782 -267 313 -505 596 -529 630 -154 218
-227 517 -190 783 9 69 636 2718 674 2849 16 57 79 135 129 161 94 49 182 52
272 8z m7593 5 c68 -30 136 -105 156 -174 37 -130 665 -2780 674 -2849 36
-259 -32 -550 -178 -766 -23 -33 -269 -328 -547 -653 -278 -326 -527 -624
-554 -663 -187 -274 -235 -560 -158 -932 l34 -163 -873 0 -873 0 0 523 c0 287
5 577 10 644 23 291 110 563 258 801 75 121 102 153 519 636 241 277 398 467
428 516 65 108 99 214 135 425 35 202 50 244 110 309 78 84 186 118 306 96
108 -21 107 -20 154 -280 23 -124 43 -270 46 -325 10 -180 -36 -386 -124 -548
-21 -40 -133 -203 -248 -362 -115 -160 -217 -306 -227 -325 -14 -26 -17 -48
-13 -84 13 -119 137 -183 239 -123 52 30 464 599 541 748 126 241 183 518 157
768 -16 154 -88 538 -113 600 -28 71 -116 164 -189 201 l-57 29 -7 867 c-8
938 -9 910 46 991 77 112 217 149 348 93z m-5519 -6762 c0 -134 -5 -259 -10
-278 -12 -45 -65 -97 -111 -110 -21 -6 -328 -10 -804 -10 -814 1 -816 1 -867
47 -49 45 -52 60 -39 293 6 118 14 234 17 258 l5 42 905 0 904 0 0 -242z
m5014 200 c3 -24 11 -140 17 -258 13 -233 10 -248 -39 -293 -51 -46 -53 -46
-867 -47 -476 0 -783 4 -804 10 -46 13 -99 65 -111 110 -5 19 -10 144 -10 278
l0 242 904 0 905 0 5 -42z"/>
<path d="M3303 8715 c-178 -48 -315 -198 -346 -379 -45 -262 182 -526 453
-526 122 0 243 54 329 146 178 190 175 452 -8 635 -119 118 -278 164 -428 124z
m202 -244 c171 -79 168 -326 -4 -403 -146 -66 -311 41 -311 202 0 56 28 125
64 159 64 60 173 78 251 42z"/>
<path d="M5475 8090 c-26 -13 -191 -171 -460 -440 l-419 -419 -146 143 c-122
121 -153 146 -190 156 -60 16 -120 14 -167 -5 -26 -11 -165 -143 -453 -430
l-415 -414 -332 -3 -333 -3 -27 -28 c-24 -23 -28 -36 -28 -82 0 -46 4 -59 28
-82 l27 -28 2214 0 c2200 0 2214 0 2236 20 55 49 57 126 4 176 l-26 24 -1304
5 -1304 5 595 595 595 595 447 -447 c346 -344 455 -447 479 -453 44 -9 99 16
124 57 24 39 25 69 6 106 -8 15 -221 233 -473 484 -314 314 -470 462 -495 473
-51 21 -134 18 -183 -5z m-1237 -1217 l-193 -193 -245 0 -245 0 315 315 315
315 122 -122 123 -123 -192 -192z"/>
<path d="M5778 7363 c7 -3 16 -2 19 1 4 3 -2 6 -13 5 -11 0 -14 -3 -6 -6z"/>
<path d="M6878 5984 c-35 -18 -58 -62 -58 -110 0 -28 8 -44 34 -70 l34 -34
274 0 c296 1 292 0 330 57 23 36 23 70 -2 110 -36 60 -52 63 -332 63 -204 -1
-258 -4 -280 -16z"/>
<path d="M2662 5524 c-44 -30 -52 -64 -52 -209 0 -153 9 -182 63 -215 41 -25
73 -25 115 0 51 31 62 71 62 214 0 136 -6 164 -46 201 -32 30 -106 34 -142 9z"/>
<path d="M3232 5524 c-44 -30 -52 -64 -52 -209 0 -153 9 -182 63 -215 40 -25
74 -25 110 -2 54 36 56 44 57 219 l0 161 -31 31 c-25 26 -38 31 -78 31 -26 0
-56 -7 -69 -16z"/>
<path d="M3788 5511 l-33 -29 -3 -160 -3 -160 31 -36 c39 -44 84 -55 132 -32
60 29 68 55 68 225 l0 150 -31 36 c-28 31 -37 35 -80 35 -40 0 -55 -5 -81 -29z"/>
<path d="M4351 5505 l-31 -36 0 -150 c0 -170 8 -196 68 -225 48 -23 93 -12
132 32 l31 36 -3 160 -3 160 -33 29 c-26 24 -41 29 -81 29 -43 0 -52 -4 -80
-35z"/>
<path d="M4922 5507 l-32 -33 0 -161 0 -161 31 -31 c52 -53 104 -53 162 -2
l32 29 3 147 c2 99 0 157 -9 176 -19 46 -55 69 -108 69 -40 0 -52 -5 -79 -33z"/>
<path d="M5492 5511 c-36 -37 -42 -64 -42 -208 0 -132 12 -173 62 -203 40 -24
69 -25 109 -5 58 31 69 64 69 218 0 147 -8 181 -52 211 -13 9 -43 16 -69 16
-39 0 -53 -5 -77 -29z"/>
<path d="M6072 5524 c-44 -30 -52 -64 -52 -209 0 -153 9 -182 63 -215 41 -25
73 -25 115 0 51 31 62 71 62 214 0 136 -6 164 -46 201 -32 30 -106 34 -142 9z"/>
<path d="M6642 5524 c-44 -30 -52 -64 -52 -209 0 -153 9 -182 63 -215 40 -25
74 -25 110 -2 54 36 56 44 57 219 l0 161 -31 31 c-25 26 -38 31 -78 31 -26 0
-56 -7 -69 -16z"/>
<path d="M7198 5511 l-33 -29 -3 -160 -3 -160 31 -36 c39 -44 84 -55 132 -32
60 29 68 55 68 225 l0 150 -31 36 c-28 31 -37 35 -80 35 -40 0 -55 -5 -81 -29z"/>
</g>
</svg>
